<svg width="200.000000" height="200.000000" viewBox="0 0 200 200" fill="none" xmlns="http://www.w3.org/2000/svg" xmlns:xlink="http://www.w3.org/1999/xlink">
	<desc>
			Created with Pixso.
	</desc>
	<defs/>
	<path id="Vector" d="M100 0C72.83 0 69.44 0.12 58.77 0.6C48.12 1.1 40.87 2.77 34.5 5.25C27.92 7.79 22.34 11.22 16.78 16.78C11.22 22.34 7.79 27.91 5.25 34.5C2.77 40.87 1.09 48.12 0.59 58.77C0.09 69.44 0 72.83 0 100C0 127.16 0.12 130.55 0.59 141.22C1.09 151.86 2.77 159.12 5.25 165.5C7.79 172.06 11.22 177.65 16.78 183.21C22.34 188.76 27.91 192.2 34.5 194.75C40.88 197.21 48.13 198.9 58.77 199.4C69.44 199.9 72.83 200 100 200C127.16 200 130.55 199.87 141.22 199.4C151.86 198.9 159.12 197.21 165.5 194.75C172.06 192.2 177.65 188.76 183.21 183.21C188.76 177.65 192.2 172.09 194.75 165.5C197.21 159.12 198.9 151.86 199.4 141.22C199.9 130.55 200 127.16 200 100C200 72.83 199.87 69.44 199.4 58.77C198.9 48.13 197.21 40.86 194.75 34.5C192.2 27.92 188.76 22.34 183.21 16.78C177.65 11.22 172.09 7.79 165.5 5.25C159.12 2.77 151.86 1.09 141.22 0.6C130.55 0.1 127.16 0 100 0ZM100 18C126.69 18 129.87 18.13 140.41 18.59C150.16 19.04 155.45 20.66 158.97 22.04C163.65 23.85 166.97 26.02 170.49 29.51C173.98 33.01 176.15 36.34 177.95 41.02C179.32 44.54 180.95 49.83 181.4 59.58C181.87 70.13 181.98 73.29 181.98 100C181.98 126.7 181.85 129.87 181.36 140.41C180.85 150.16 179.23 155.45 177.85 158.97C175.99 163.65 173.86 166.97 170.36 170.49C166.87 173.98 163.5 176.15 158.86 177.95C155.36 179.32 149.99 180.95 140.24 181.4C129.62 181.87 126.5 181.98 99.75 181.98C72.99 181.98 69.86 181.85 59.25 181.36C49.5 180.85 44.12 179.23 40.62 177.85C35.88 175.99 32.62 173.86 29.13 170.36C25.62 166.87 23.38 163.5 21.63 158.86C20.25 155.36 18.64 149.99 18.13 140.24C17.75 129.74 17.62 126.5 17.62 99.87C17.62 73.24 17.75 69.99 18.13 59.36C18.64 49.61 20.25 44.25 21.63 40.75C23.38 36 25.62 32.75 29.13 29.24C32.62 25.75 35.88 23.5 40.62 21.75C44.12 20.37 49.38 18.75 59.13 18.25C69.75 17.87 72.88 17.75 99.62 17.75L100 18ZM100 48.64C71.62 48.64 48.65 71.64 48.65 100C48.65 128.37 71.65 151.35 100 151.35C128.37 151.35 151.35 128.35 151.35 100C151.35 71.62 128.35 48.64 100 48.64ZM100 133.33C81.58 133.33 66.66 118.41 66.66 100C66.66 81.58 81.58 66.66 100 66.66C118.41 66.66 133.33 81.58 133.33 100C133.33 118.41 118.41 133.33 100 133.33ZM165.38 46.62C165.38 53.25 160 58.62 153.38 58.62C146.75 58.62 141.38 53.24 141.38 46.62C141.38 40 146.76 34.63 153.38 34.63C159.99 34.62 165.38 40 165.38 46.62Z" fill="#FFFFFF" fill-opacity="1.000000" fill-rule="nonzero"/>
</svg>
